999
dxflib 3.7.0.0
  0
SECTION
  2
HEADER
  9
$ACADVER
  1
AC1015
  9
$HANDSEED
  5
FFFF
  9
$DIMADEC
 70
0
  9
$DIMASZ
 40
2.5
  9
$DIMAUNIT
 70
0
  9
$DIMAZIN
 70
2
  9
$DIMDEC
 70
4
  9
$DIMEXE
 40
1.25
  9
$DIMEXO
 40
0.625
  9
$DIMGAP
 40
0.625
  9
$DIMLUNIT
 70
2
  9
$DIMSCALE
 40
1.0
  9
$DIMTSZ
 40
0.0
  9
$DIMTXT
 40
2.5
  9
$DIMZIN
 70
8
  9
$DWGCODEPAGE
  3
ANSI_1252
  9
$INSUNITS
 70
4
  0
ENDSEC
  0
SECTION
  2
TABLES
  0
TABLE
  2
VPORT
  5
8
100
AcDbSymbolTable
 70
1
  0
VPORT
  5
30
100
AcDbSymbolTableRecord
100
AcDbViewportTableRecord
  2
*Active
 70
0
 10
0.0
 20
0.0
 11
1.0
 21
1.0
 12
286.3055555555554861
 22
148.5
 13
0.0
 23
0.0
 14
10.0
 24
10.0
 15
10.0
 25
10.0
 16
0.0
 26
0.0
 36
1.0
 17
0.0
 27
0.0
 37
0.0
 40
297.0
 41
1.92798353909465
 42
50.0
 43
0.0
 44
0.0
 50
0.0
 51
0.0
 71
0
 72
100
 73
1
 74
3
 75
1
 76
1
 77
0
 78
0
281
0
 65
1
110
0.0
120
0.0
130
0.0
111
1.0
121
0.0
131
0.0
112
0.0
122
1.0
132
0.0
 79
0
146
0.0
  0
ENDTAB
  0
TABLE
  2
LTYPE
  5
5
100
AcDbSymbolTable
 70
3
  0
LTYPE
  5
16
100
AcDbSymbolTableRecord
100
AcDbLinetypeTableRecord
  2
Continuous
 70
0
  3
Solid line
 72
65
 73
0
 40
0.0
  0
LTYPE
  5
15
100
AcDbSymbolTableRecord
100
AcDbLinetypeTableRecord
  2
BYLAYER
 70
0
  3

 72
65
 73
0
 40
0.0
  0
LTYPE
  5
14
100
AcDbSymbolTableRecord
100
AcDbLinetypeTableRecord
  2
BYBLOCK
 70
0
  3

 72
65
 73
0
 40
0.0
  0
ENDTAB
  0
TABLE
  2
LAYER
  5
2
100
AcDbSymbolTable
 70
1
  0
LAYER
  5
10
100
AcDbSymbolTableRecord
100
AcDbLayerTableRecord
  2
0
 70
0
 62
7
420
16777215
  6
Continuous
370
25
390
F
  0
ENDTAB
  0
TABLE
  2
STYLE
  5
3
100
AcDbSymbolTable
 70
2
  0
STYLE
  5
31
100
AcDbSymbolTableRecord
100
AcDbTextStyleTableRecord
  2
Standard
 70
0
 40
0.0
 41
1.0
 50
0.0
 71
0
 42
2.5
  3

  4

1001
ACAD
1000
txt
1071
0
  0
STYLE
  5
32
100
AcDbSymbolTableRecord
100
AcDbTextStyleTableRecord
  2
textstyle0
 70
0
 40
0.0
 41
1.0
 50
0.0
 71
0
 42
1.0
  3

  4

1001
ACAD
1000
Bitstream Vera Sans
1071
0
  0
ENDTAB
  0
TABLE
  2
VIEW
  5
6
100
AcDbSymbolTable
 70
0
  0
ENDTAB
  0
TABLE
  2
UCS
  5
7
100
AcDbSymbolTable
 70
0
  0
ENDTAB
  0
TABLE
  2
APPID
  5
9
100
AcDbSymbolTable
 70
1
  0
APPID
  5
12
100
AcDbSymbolTableRecord
100
AcDbRegAppTableRecord
  2
ACAD
 70
0
  0
APPID
  5
33
100
AcDbSymbolTableRecord
100
AcDbRegAppTableRecord
  2
QCAD
 70
0
  0
ENDTAB
  0
TABLE
  2
DIMSTYLE
  5
A
100
AcDbSymbolTable
 70
1
100
AcDbDimStyleTable
 71
0
  0
DIMSTYLE
105
27
100
AcDbSymbolTableRecord
100
AcDbDimStyleTableRecord
  2
Standard
 41
2.5
 42
0.625
 43
3.75
 44
1.25
 70
0
 73
0
 74
0
 77
1
 78
8
140
2.5
141
2.5
143
0.03937007874016
147
0.625
171
3
172
1
271
2
272
2
274
3
278
44
283
0
284
8
340
31
  0
ENDTAB
  0
TABLE
  2
BLOCK_RECORD
  5
1
100
AcDbSymbolTable
 70
1
  0
BLOCK_RECORD
  5
1F
100
AcDbSymbolTableRecord
100
AcDbBlockTableRecord
  2
*Model_Space
340
22
  0
BLOCK_RECORD
  5
1B
100
AcDbSymbolTableRecord
100
AcDbBlockTableRecord
  2
*Paper_Space
340
1E
  0
BLOCK_RECORD
  5
23
100
AcDbSymbolTableRecord
100
AcDbBlockTableRecord
  2
*Paper_Space0
340
26
  0
BLOCK_RECORD
  5
34
100
AcDbSymbolTableRecord
100
AcDbBlockTableRecord
  2
slider
340
0
  0
BLOCK_RECORD
  5
35
100
AcDbSymbolTableRecord
100
AcDbBlockTableRecord
  2
flashknapp
340
0
  0
BLOCK_RECORD
  5
36
100
AcDbSymbolTableRecord
100
AcDbBlockTableRecord
  2
potentiometerhatt
340
0
  0
BLOCK_RECORD
  5
37
100
AcDbSymbolTableRecord
100
AcDbBlockTableRecord
  2
slider_knob
340
0
  0
BLOCK_RECORD
  5
38
100
AcDbSymbolTableRecord
100
AcDbBlockTableRecord
  2
monitor
340
0
  0
BLOCK_RECORD
  5
39
100
AcDbSymbolTableRecord
100
AcDbBlockTableRecord
  2
skrivruta
340
0
  0
BLOCK_RECORD
  5
3A
100
AcDbSymbolTableRecord
100
AcDbBlockTableRecord
  2
kolumn
340
0
  0
ENDTAB
  0
ENDSEC
  0
SECTION
  2
BLOCKS
  0
BLOCK
  5
20
100
AcDbEntity
  8
0
100
AcDbBlockBegin
  2
*Model_Space
 70
0
 10
0.0
 20
0.0
 30
0.0
  3
*Model_Space
  1

  0
ENDBLK
  5
21
100
AcDbEntity
  8
0
100
AcDbBlockEnd
  0
BLOCK
  5
1C
100
AcDbEntity
 67
1
  8
0
100
AcDbBlockBegin
  2
*Paper_Space
 70
0
 10
0.0
 20
0.0
 30
0.0
  3
*Paper_Space
  1

  0
ENDBLK
  5
1D
100
AcDbEntity
 67
1
  8
0
100
AcDbBlockEnd
  0
BLOCK
  5
24
100
AcDbEntity
  8
0
100
AcDbBlockBegin
  2
*Paper_Space0
 70
0
 10
0.0
 20
0.0
 30
0.0
  3
*Paper_Space0
  1

  0
ENDBLK
  5
25
100
AcDbEntity
  8
0
100
AcDbBlockEnd
  0
BLOCK
  5
3B
100
AcDbEntity
  8
0
100
AcDbBlockBegin
  2
slider
 70
0
 10
0.0
 20
0.0
 30
0.0
  3
slider
  1

  0
LINE
  5
3C
100
AcDbEntity
100
AcDbLine
  8
0
 62
256
370
-1
 48
1.0
  6
BYLAYER
 10
-0.7348289036545026
 20
-24.209777408637855
 30
0.0
 11
127.2651710963454974
 21
-24.209777408637855
 31
0.0
  0
LINE
  5
3D
100
AcDbEntity
100
AcDbLine
  8
0
 62
256
370
-1
 48
1.0
  6
BYLAYER
 10
127.2651710963454974
 20
-24.209777408637855
 30
0.0
 11
127.2651710963454974
 21
-8.209777408637855
 31
0.0
  0
LINE
  5
3E
100
AcDbEntity
100
AcDbLine
  8
0
 62
256
370
-1
 48
1.0
  6
BYLAYER
 10
127.2651710963454974
 20
-8.209777408637855
 30
0.0
 11
-0.7348289036545026
 21
-8.209777408637855
 31
0.0
  0
LINE
  5
3F
100
AcDbEntity
100
AcDbLine
  8
0
 62
256
370
-1
 48
1.0
  6
BYLAYER
 10
-0.7348289036545026
 20
-8.209777408637855
 30
0.0
 11
-0.7348289036545026
 21
-24.209777408637855
 31
0.0
  0
LINE
  5
40
100
AcDbEntity
100
AcDbLine
  8
0
 62
256
370
-1
 48
1.0
  6
BYLAYER
 10
9.2651710963454974
 20
-18.209777408637855
 30
0.0
 11
117.2651710963454974
 21
-18.209777408637855
 31
0.0
  0
LINE
  5
41
100
AcDbEntity
100
AcDbLine
  8
0
 62
256
370
-1
 48
1.0
  6
BYLAYER
 10
117.2651710963454974
 20
-18.209777408637855
 30
0.0
 11
117.2651710963454974
 21
-14.209777408637855
 31
0.0
  0
LINE
  5
42
100
AcDbEntity
100
AcDbLine
  8
0
 62
256
370
-1
 48
1.0
  6
BYLAYER
 10
117.2651710963454974
 20
-14.209777408637855
 30
0.0
 11
9.2651710963454974
 21
-14.209777408637855
 31
0.0
  0
LINE
  5
43
100
AcDbEntity
100
AcDbLine
  8
0
 62
256
370
-1
 48
1.0
  6
BYLAYER
 10
9.2651710963454974
 20
-14.209777408637855
 30
0.0
 11
9.2651710963454974
 21
-18.209777408637855
 31
0.0
  0
LINE
  5
44
100
AcDbEntity
100
AcDbLine
  8
0
 62
256
370
-1
 48
1.0
  6
BYLAYER
 10
13.2651710963454974
 20
-16.209777408637855
 30
0.0
 11
113.2651710963454974
 21
-16.209777408637855
 31
0.0
  0
LINE
  5
45
100
AcDbEntity
100
AcDbLine
  8
0
 62
256
370
-1
 48
1.0
  6
BYLAYER
 10
113.2651710963454974
 20
-16.209777408637855
 30
0.0
 11
113.2651710963454974
 21
-16.209777408637855
 31
0.0
  0
LINE
  5
46
100
AcDbEntity
100
AcDbLine
  8
0
 62
256
370
-1
 48
1.0
  6
BYLAYER
 10
113.2651710963454974
 20
-16.209777408637855
 30
0.0
 11
13.2651710963454974
 21
-16.209777408637855
 31
0.0
  0
LINE
  5
47
100
AcDbEntity
100
AcDbLine
  8
0
 62
256
370
-1
 48
1.0
  6
BYLAYER
 10
13.2651710963454974
 20
-16.209777408637855
 30
0.0
 11
13.2651710963454974
 21
-16.209777408637855
 31
0.0
  0
CIRCLE
  5
48
100
AcDbEntity
100
AcDbCircle
  8
0
 62
256
370
-1
 48
1.0
  6
BYLAYER
 10
3.2651710963454974
 20
-16.209777408637855
 30
0.0
 40
1.5
  0
CIRCLE
  5
49
100
AcDbEntity
100
AcDbCircle
  8
0
 62
256
370
-1
 48
1.0
  6
BYLAYER
 10
123.2651710963454974
 20
-16.209777408637855
 30
0.0
 40
1.5
  0
LINE
  5
4A
100
AcDbEntity
100
AcDbLine
  8
0
 62
256
370
-1
 48
1.0
  6
BYLAYER
 10
9.2651710963454974
 20
-16.8097774086378564
 30
0.0
 11
17.2651710963454974
 21
-16.8097774086378564
 31
0.0
  0
LINE
  5
4B
100
AcDbEntity
100
AcDbLine
  8
0
 62
256
370
-1
 48
1.0
  6
BYLAYER
 10
17.2651710963454974
 20
-16.8097774086378564
 30
0.0
 11
17.2651710963454974
 21
-15.6097774086378553
 31
0.0
  0
LINE
  5
4C
100
AcDbEntity
100
AcDbLine
  8
0
 62
256
370
-1
 48
1.0
  6
BYLAYER
 10
17.2651710963454974
 20
-15.6097774086378553
 30
0.0
 11
9.2651710963454974
 21
-15.6097774086378553
 31
0.0
  0
LINE
  5
4D
100
AcDbEntity
100
AcDbLine
  8
0
 62
256
370
-1
 48
1.0
  6
BYLAYER
 10
9.2651710963454974
 20
-15.6097774086378553
 30
0.0
 11
9.2651710963454974
 21
-16.8097774086378564
 31
0.0
  0
POINT
  5
4E
100
AcDbEntity
100
AcDbPoint
  8
0
 62
256
370
-1
 48
1.0
  6
BYLAYER
 10
13.2651710963454974
 20
-16.209777408637855
 30
0.0
  0
ENDBLK
  5
4F
100
AcDbEntity
  8
0
100
AcDbBlockEnd
  0
BLOCK
  5
50
100
AcDbEntity
  8
0
100
AcDbBlockBegin
  2
flashknapp
 70
0
 10
0.0
 20
0.0
 30
0.0
  3
flashknapp
  1

  0
LINE
  5
51
100
AcDbEntity
100
AcDbLine
  8
0
 62
256
370
-1
 48
1.0
  6
BYLAYER
 10
-9.8513883272285341
 20
23.5504371120876002
 30
0.0
 11
-25.8513883272285341
 21
23.5504371120876002
 31
0.0
  0
LINE
  5
52
100
AcDbEntity
100
AcDbLine
  8
0
 62
256
370
-1
 48
1.0
  6
BYLAYER
 10
-25.8513883272285341
 20
23.5504371120876002
 30
0.0
 11
-25.8513883272285341
 21
11.5504371120876002
 31
0.0
  0
LINE
  5
53
100
AcDbEntity
100
AcDbLine
  8
0
 62
256
370
-1
 48
1.0
  6
BYLAYER
 10
-25.8513883272285341
 20
11.5504371120876002
 30
0.0
 11
-9.8513883272285341
 21
11.5504371120876002
 31
0.0
  0
LINE
  5
54
100
AcDbEntity
100
AcDbLine
  8
0
 62
256
370
-1
 48
1.0
  6
BYLAYER
 10
-9.8513883272285341
 20
11.5504371120876002
 30
0.0
 11
-9.8513883272285341
 21
23.5504371120876002
 31
0.0
  0
ENDBLK
  5
55
100
AcDbEntity
  8
0
100
AcDbBlockEnd
  0
BLOCK
  5
56
100
AcDbEntity
  8
0
100
AcDbBlockBegin
  2
potentiometerhatt
 70
0
 10
0.0
 20
0.0
 30
0.0
  3
potentiometerhatt
  1

  0
CIRCLE
  5
57
100
AcDbEntity
100
AcDbCircle
  8
0
 62
256
370
-1
 48
1.0
  6
BYLAYER
 10
-14.0
 20
7.0
 30
0.0
 40
8.5
  0
LINE
  5
58
100
AcDbEntity
100
AcDbLine
  8
0
 62
256
370
-1
 48
1.0
  6
BYLAYER
 10
-14.7497646152387567
 20
7.6617046333039234
 30
0.0
 11
-19.4196433228722469
 21
2.3703561430292277
 31
0.0
  0
LINE
  5
59
100
AcDbEntity
100
AcDbLine
  8
0
 62
256
370
-1
 48
1.0
  6
BYLAYER
 10
-18.6296438569707732
 20
1.5803566771277548
 30
0.0
 11
-13.3382953666960766
 21
6.2502353847612433
 31
0.0
  0
ARC
  5
5A
100
AcDbEntity
  8
0
 62
256
370
-1
 48
1.0
  6
BYLAYER
100
AcDbCircle
 10
-19.0
 20
2.0
 30
0.0
 40
0.5597000903258329
100
AcDbArc
 50
138.5699922502777497
 51
324.5503057013942225
  0
ARC
  5
5B
100
AcDbEntity
  8
0
 62
256
370
-1
 48
1.0
  6
BYLAYER
100
AcDbCircle
 10
-14.0
 20
7.0
 30
0.0
 40
1.0
100
AcDbArc
 50
311.4300077497222787
 51
138.5699922502777497
  0
ARC
  5
5C
100
AcDbEntity
  8
0
 62
256
370
-1
 48
1.0
  6
BYLAYER
100
AcDbCircle
 10
-14.0000000000000018
 20
7.0000000000000018
 30
0.0
 40
7.0
100
AcDbArc
 50
229.6432184514604842
 51
220.3567815485395442
  0
ENDBLK
  5
5D
100
AcDbEntity
  8
0
100
AcDbBlockEnd
  0
BLOCK
  5
5E
100
AcDbEntity
  8
0
100
AcDbBlockBegin
  2
slider_knob
 70
0
 10
0.0
 20
0.0
 30
0.0
  3
slider_knob
  1

  0
POINT
  5
5F
100
AcDbEntity
100
AcDbPoint
  8
0
 62
256
370
-1
 48
1.0
  6
BYLAYER
 10
2.0
 20
-6.0
 30
0.0
  0
LINE
  5
60
100
AcDbEntity
100
AcDbLine
  8
0
 62
256
370
-1
 48
1.0
  6
BYLAYER
 10
-10.0
 20
-13.5
 30
0.0
 11
14.0
 21
-13.5
 31
0.0
  0
LINE
  5
61
100
AcDbEntity
100
AcDbLine
  8
0
 62
256
370
-1
 48
1.0
  6
BYLAYER
 10
14.0
 20
-13.5
 30
0.0
 11
14.0
 21
1.5
 31
0.0
  0
LINE
  5
62
100
AcDbEntity
100
AcDbLine
  8
0
 62
256
370
-1
 48
1.0
  6
BYLAYER
 10
14.0
 20
1.5
 30
0.0
 11
-10.0
 21
1.5
 31
0.0
  0
LINE
  5
63
100
AcDbEntity
100
AcDbLine
  8
0
 62
256
370
-1
 48
1.0
  6
BYLAYER
 10
-10.0
 20
1.5
 30
0.0
 11
-10.0
 21
-13.5
 31
0.0
  0
LINE
  5
64
100
AcDbEntity
100
AcDbLine
  8
0
 62
256
370
-1
 48
1.0
  6
BYLAYER
 10
-2.0
 20
-6.5999999999999996
 30
0.0
 11
6.0
 21
-6.5999999999999996
 31
0.0
  0
LINE
  5
65
100
AcDbEntity
100
AcDbLine
  8
0
 62
256
370
-1
 48
1.0
  6
BYLAYER
 10
6.0
 20
-6.5999999999999996
 30
0.0
 11
6.0
 21
-5.4000000000000004
 31
0.0
  0
LINE
  5
66
100
AcDbEntity
100
AcDbLine
  8
0
 62
256
370
-1
 48
1.0
  6
BYLAYER
 10
6.0
 20
-5.4000000000000004
 30
0.0
 11
-2.0
 21
-5.4000000000000004
 31
0.0
  0
LINE
  5
67
100
AcDbEntity
100
AcDbLine
  8
0
 62
256
370
-1
 48
1.0
  6
BYLAYER
 10
-2.0
 20
-5.4000000000000004
 30
0.0
 11
-2.0
 21
-6.5999999999999996
 31
0.0
  0
ENDBLK
  5
68
100
AcDbEntity
  8
0
100
AcDbBlockEnd
  0
BLOCK
  5
69
100
AcDbEntity
  8
0
100
AcDbBlockBegin
  2
monitor
 70
0
 10
0.0
 20
0.0
 30
0.0
  3
monitor
  1

  0
CIRCLE
  5
6A
100
AcDbEntity
100
AcDbCircle
  8
0
 62
256
370
-1
 48
1.0
  6
BYLAYER
 10
-16.1603094863319541
 20
6.4159213401234751
 30
0.0
 40
2.0
  0
ENDBLK
  5
6B
100
AcDbEntity
  8
0
100
AcDbBlockEnd
  0
BLOCK
  5
6C
100
AcDbEntity
  8
0
100
AcDbBlockBegin
  2
skrivruta
 70
0
 10
0.0
 20
0.0
 30
0.0
  3
skrivruta
  1

  0
LINE
  5
6D
100
AcDbEntity
100
AcDbLine
  8
0
 62
256
370
-1
 48
1.0
  6
BYLAYER
 10
-52.283736242563208
 20
15.3812849567685248
 30
0.0
 11
-12.283736242563208
 21
15.3812849567685248
 31
0.0
  0
LINE
  5
6E
100
AcDbEntity
100
AcDbLine
  8
0
 62
256
370
-1
 48
1.0
  6
BYLAYER
 10
-12.283736242563208
 20
15.3812849567685248
 30
0.0
 11
-12.283736242563208
 21
35.3812849567685248
 31
0.0
  0
LINE
  5
6F
100
AcDbEntity
100
AcDbLine
  8
0
 62
256
370
-1
 48
1.0
  6
BYLAYER
 10
-12.283736242563208
 20
35.3812849567685248
 30
0.0
 11
-52.283736242563208
 21
35.3812849567685248
 31
0.0
  0
LINE
  5
70
100
AcDbEntity
100
AcDbLine
  8
0
 62
256
370
-1
 48
1.0
  6
BYLAYER
 10
-52.283736242563208
 20
35.3812849567685248
 30
0.0
 11
-52.283736242563208
 21
15.3812849567685248
 31
0.0
  0
HATCH
  5
71
  8
0
 62
256
370
-1
 48
1.0
  6
BYLAYER
100
AcDbEntity
100
AcDbHatch
 10
0.0
 20
0.0
 30
0.0
210
0.0
220
0.0
230
1.0
  2
ZIGZAG
 70
0
 71
0
 91
1
 92
1
 93
4
 72
1
 10
-52.283736242563208
 20
15.3812849567685248
 11
-12.283736242563208
 21
15.3812849567685248
 72
1
 10
-12.283736242563208
 20
15.3812849567685248
 11
-12.283736242563208
 21
35.3812849567685248
 72
1
 10
-12.283736242563208
 20
35.3812849567685248
 11
-52.283736242563208
 21
35.3812849567685248
 72
1
 10
-52.283736242563208
 20
35.3812849567685248
 11
-52.283736242563208
 21
15.3812849567685248
 97
0
 75
0
 76
1
 52
0.0
 41
1.0
 77
0
 78
1
 53
45.0
 43
0.0
 44
0.0
 45
-0.0883883476483184
 46
0.0883883476483185
 79
0
 98
0
1001
ACAD
1010
0.0
1020
0.0
1030
0
  0
ENDBLK
  5
72
100
AcDbEntity
  8
0
100
AcDbBlockEnd
  0
BLOCK
  5
73
100
AcDbEntity
  8
0
100
AcDbBlockBegin
  2
kolumn
 70
0
 10
0.0
 20
0.0
 30
0.0
  3
kolumn
  1

  0
INSERT
  5
74
100
AcDbEntity
100
AcDbBlockReference
  8
0
 62
256
370
-1
 48
1.0
  6
BYLAYER
  2
monitor
 10
156.1603094863319541
 20
3.5840786598765249
 30
0.0
  0
INSERT
  5
75
100
AcDbEntity
100
AcDbBlockReference
  8
0
 62
256
370
-1
 48
1.0
  6
BYLAYER
  2
flashknapp
 10
157.8513883272285341
 20
-153.5504371120875931
 30
0.0
  0
LINE
  5
76
100
AcDbEntity
100
AcDbLine
  8
0
 62
256
370
-1
 48
1.0
  6
BYLAYER
 10
143.7556811276796509
 20
111.3765388723864476
 30
0.0
 11
136.250462439255358
 21
108.6068136949549228
 31
0.0
  0
LINE
  5
77
100
AcDbEntity
100
AcDbLine
  8
0
 62
256
370
-1
 48
1.0
  6
BYLAYER
 10
160.0
 20
120.0
 30
0.0
 11
120.0
 21
120.0
 31
0.0
  0
INSERT
  5
78
100
AcDbEntity
100
AcDbBlockReference
  8
0
 62
256
370
-1
 48
1.0
  6
BYLAYER
  2
slider_knob
 10
134.0000000000001705
 20
-112.0
 30
0.0
 50
90.0
  0
LINE
  5
79
100
AcDbEntity
100
AcDbLine
  8
0
 62
256
370
-1
 48
1.0
  6
BYLAYER
 10
120.0
 20
120.0
 30
0.0
 11
120.0
 21
-155.0
 31
0.0
  0
INSERT
  5
7A
100
AcDbEntity
100
AcDbBlockReference
  8
0
 62
256
370
-1
 48
1.0
  6
BYLAYER
  2
skrivruta
 10
172.283736242563208
 20
40.6187150432314752
 30
0.0
  0
INSERT
  5
7B
100
AcDbEntity
100
AcDbBlockReference
  8
0
 62
256
370
-1
 48
1.0
  6
BYLAYER
  2
skrivruta
 10
172.283736242563208
 20
0.6187150432314752
 30
0.0
  0
LINE
  5
7C
100
AcDbEntity
100
AcDbLine
  8
0
 62
256
370
-1
 48
1.0
  6
BYLAYER
 10
120.0
 20
-155.0
 30
0.0
 11
160.0
 21
-155.0
 31
0.0
  0
INSERT
  5
7D
100
AcDbEntity
100
AcDbBlockReference
  8
0
 62
256
370
-1
 48
1.0
  6
BYLAYER
  2
slider
 10
123.7902225913623084
 20
-123.2651710963454974
 30
0.0
 50
90.0
  0
INSERT
  5
7E
100
AcDbEntity
100
AcDbBlockReference
  8
0
 62
256
370
-1
 48
1.0
  6
BYLAYER
  2
skrivruta
 10
172.283736242563208
 20
-195.3812849567685248
 30
0.0
  0
LINE
  5
7F
100
AcDbEntity
100
AcDbLine
  8
0
 62
256
370
-1
 48
1.0
  6
BYLAYER
 10
160.0
 20
-155.0
 30
0.0
 11
160.0
 21
120.0
 31
0.0
  0
INSERT
  5
80
100
AcDbEntity
100
AcDbBlockReference
  8
0
 62
256
370
-1
 48
1.0
  6
BYLAYER
  2
potentiometerhatt
 10
154.0
 20
39.0
 30
0.0
  0
INSERT
  5
81
100
AcDbEntity
100
AcDbBlockReference
  8
0
 62
256
370
-1
 48
1.0
  6
BYLAYER
  2
potentiometerhatt
 10
154.0
 20
79.5
 30
0.0
  0
CIRCLE
  5
82
100
AcDbEntity
100
AcDbCircle
  8
0
 62
256
370
-1
 48
1.0
  6
BYLAYER
 10
140.0
 20
110.0
 30
0.0
 40
4.0
  0
ENDBLK
  5
83
100
AcDbEntity
  8
0
100
AcDbBlockEnd
  0
ENDSEC
  0
SECTION
  2
ENTITIES
  0
INSERT
  5
84
100
AcDbEntity
100
AcDbBlockReference
  8
0
 62
256
370
-1
 48
1.0
  6
BYLAYER
  2
kolumn
 10
-110.0
 20
190.0
 30
0.0
  0
INSERT
  5
85
100
AcDbEntity
100
AcDbBlockReference
  8
0
 62
256
370
-1
 48
1.0
  6
BYLAYER
  2
kolumn
 10
-70.0
 20
190.0
 30
0.0
  0
INSERT
  5
86
100
AcDbEntity
100
AcDbBlockReference
  8
0
 62
256
370
-1
 48
1.0
  6
BYLAYER
  2
kolumn
 10
-30.0
 20
190.0
 30
0.0
  0
INSERT
  5
87
100
AcDbEntity
100
AcDbBlockReference
  8
0
 62
256
370
-1
 48
1.0
  6
BYLAYER
  2
kolumn
 10
10.0
 20
190.0
 30
0.0
  0
INSERT
  5
88
100
AcDbEntity
100
AcDbBlockReference
  8
0
 62
256
370
-1
 48
1.0
  6
BYLAYER
  2
kolumn
 10
50.0
 20
190.0
 30
0.0
  0
INSERT
  5
89
100
AcDbEntity
100
AcDbBlockReference
  8
0
 62
256
370
-1
 48
1.0
  6
BYLAYER
  2
kolumn
 10
90.0
 20
190.0
 30
0.0
  0
INSERT
  5
8A
100
AcDbEntity
100
AcDbBlockReference
  8
0
 62
256
370
-1
 48
1.0
  6
BYLAYER
  2
kolumn
 10
130.0
 20
190.0
 30
0.0
  0
INSERT
  5
8B
100
AcDbEntity
100
AcDbBlockReference
  8
0
 62
256
370
-1
 48
1.0
  6
BYLAYER
  2
kolumn
 10
170.0
 20
190.0
 30
0.0
  0
INSERT
  5
8C
100
AcDbEntity
100
AcDbBlockReference
  8
0
 62
256
370
-1
 48
1.0
  6
BYLAYER
  2
kolumn
 10
210.0
 20
190.0
 30
0.0
  0
INSERT
  5
8D
100
AcDbEntity
100
AcDbBlockReference
  8
0
 62
256
370
-1
 48
1.0
  6
BYLAYER
  2
kolumn
 10
250.0
 20
190.0
 30
0.0
  0
INSERT
  5
8E
100
AcDbEntity
100
AcDbBlockReference
  8
0
 62
256
370
-1
 48
1.0
  6
BYLAYER
  2
kolumn
 10
290.0
 20
190.0
 30
0.0
  0
INSERT
  5
8F
100
AcDbEntity
100
AcDbBlockReference
  8
0
 62
256
370
-1
 48
1.0
  6
BYLAYER
  2
kolumn
 10
330.0
 20
190.0
 30
0.0
  0
LINE
  5
90
100
AcDbEntity
100
AcDbLine
  8
0
 62
256
370
-1
 48
1.0
  6
BYLAYER
 10
10.0
 20
290.0
 30
0.0
 11
490.0
 21
290.0
 31
0.0
  0
LINE
  5
91
100
AcDbEntity
100
AcDbLine
  8
0
 62
256
370
-1
 48
1.0
  6
BYLAYER
 10
490.0
 20
290.0
 30
0.0
 11
490.0
 21
40.0
 31
0.0
  0
LINE
  5
92
100
AcDbEntity
100
AcDbLine
  8
0
 62
256
370
-1
 48
1.0
  6
BYLAYER
 10
490.0
 20
40.0
 30
0.0
 11
10.0
 21
40.0
 31
0.0
  0
LINE
  5
93
100
AcDbEntity
100
AcDbLine
  8
0
 62
256
370
-1
 48
1.0
  6
BYLAYER
 10
10.0
 20
40.0
 30
0.0
 11
10.0
 21
290.0
 31
0.0
  0
MTEXT
  5
94
100
AcDbEntity
100
AcDbMText
  8
0
 62
256
370
-1
 48
1.0
  6
BYLAYER
 10
20.0
 20
330.0
 30
0.0
 40
1.0
 41
0.0
 71
1
 72
1
  1
\H12.5;LED Alert
  7
textstyle0
 50
0.0
 73
2
 44
1.0
  0
LINE
  5
95
100
AcDbEntity
100
AcDbLine
  8
0
 62
256
370
-1
 48
1.0
  6
BYLAYER
 10
0.0
 20
340.0
 30
0.0
 11
500.0
 21
340.0
 31
0.0
  0
LINE
  5
96
100
AcDbEntity
100
AcDbLine
  8
0
 62
256
370
-1
 48
1.0
  6
BYLAYER
 10
500.0
 20
340.0
 30
0.0
 11
500.0
 21
0.0
 31
0.0
  0
LINE
  5
97
100
AcDbEntity
100
AcDbLine
  8
0
 62
256
370
-1
 48
1.0
  6
BYLAYER
 10
500.0
 20
0.0
 30
0.0
 11
0.0
 21
0.0
 31
0.0
  0
LINE
  5
98
100
AcDbEntity
100
AcDbLine
  8
0
 62
256
370
-1
 48
1.0
  6
BYLAYER
 10
0.0
 20
0.0
 30
0.0
 11
0.0
 21
340.0
 31
0.0
  0
ENDSEC
  0
SECTION
  2
OBJECTS
  0
DICTIONARY
  5
C
100
AcDbDictionary
280
0
281
1
  3
ACAD_GROUP
350
D
  3
ACAD_LAYOUT
350
1A
  3
ACAD_MLINESTYLE
350
17
  3
ACAD_PLOTSETTINGS
350
19
  3
ACAD_PLOTSTYLENAME
350
E
  3
AcDbVariableDictionary
350
99
  3
QCAD_OBJECTS
350
9A
  0
DICTIONARY
  5
D
100
AcDbDictionary
280
0
281
1
  0
ACDBDICTIONARYWDFLT
  5
E
100
AcDbDictionary
281
1
  3
Normal
350
F
100
AcDbDictionaryWithDefault
340
F
  0
ACDBPLACEHOLDER
  5
F
  0
DICTIONARY
  5
17
100
AcDbDictionary
280
0
281
1
  3
Standard
350
18
  0
MLINESTYLE
  5
18
100
AcDbMlineStyle
  2
STANDARD
 70
0
  3

 62
256
 51
90.0
 52
90.0
 71
2
 49
0.5
 62
256
  6
BYLAYER
 49
-0.5
 62
256
  6
BYLAYER
  0
DICTIONARY
  5
19
100
AcDbDictionary
280
0
281
1
  0
DICTIONARY
  5
1A
100
AcDbDictionary
281
1
  3
Layout1
350
1E
  3
Layout2
350
26
  3
Model
350
22
  0
LAYOUT
  5
1E
100
AcDbPlotSettings
  1

  2
none_device
  4

  6

 40
0.0
 41
0.0
 42
0.0
 43
0.0
 44
0.0
 45
0.0
 46
0.0
 47
0.0
 48
0.0
 49
0.0
140
0.0
141
0.0
142
1.0
143
1.0
 70
688
 72
0
 73
0
 74
5
  7

 75
16
147
1.0
148
0.0
149
0.0
100
AcDbLayout
  1
Layout1
 70
1
 71
1
 10
0.0
 20
0.0
 11
420.0
 21
297.0
 12
0.0
 22
0.0
 32
0.0
 14
100000000000000000000.0
 24
100000000000000000000.0
 34
100000000000000000000.0
 15
-100000000000000000000.0
 25
-100000000000000000000.0
 35
-100000000000000000000.0
146
0.0
 13
0.0
 23
0.0
 33
0.0
 16
1.0
 26
0.0
 36
0.0
 17
0.0
 27
1.0
 37
0.0
 76
0
330
1B
  0
LAYOUT
  5
22
100
AcDbPlotSettings
  1

  2
none_device
  4

  6

 40
0.0
 41
0.0
 42
0.0
 43
0.0
 44
0.0
 45
0.0
 46
0.0
 47
0.0
 48
0.0
 49
0.0
140
0.0
141
0.0
142
1.0
143
1.0
 70
1712
 72
0
 73
0
 74
0
  7

 75
0
147
1.0
148
0.0
149
0.0
100
AcDbLayout
  1
Model
 70
1
 71
0
 10
0.0
 20
0.0
 11
12.0
 21
9.0
 12
0.0
 22
0.0
 32
0.0
 14
0.0
 24
0.0
 34
0.0
 15
0.0
 25
0.0
 35
0.0
146
0.0
 13
0.0
 23
0.0
 33
0.0
 16
1.0
 26
0.0
 36
0.0
 17
0.0
 27
1.0
 37
0.0
 76
0
330
1F
  0
LAYOUT
  5
26
100
AcDbPlotSettings
  1

  2
none_device
  4

  6

 40
0.0
 41
0.0
 42
0.0
 43
0.0
 44
0.0
 45
0.0
 46
0.0
 47
0.0
 48
0.0
 49
0.0
140
0.0
141
0.0
142
1.0
143
1.0
 70
688
 72
0
 73
0
 74
5
  7

 75
16
147
1.0
148
0.0
149
0.0
100
AcDbLayout
  1
Layout2
 70
1
 71
2
 10
0.0
 20
0.0
 11
12.0
 21
9.0
 12
0.0
 22
0.0
 32
0.0
 14
0.0
 24
0.0
 34
0.0
 15
0.0
 25
0.0
 35
0.0
146
0.0
 13
0.0
 23
0.0
 33
0.0
 16
1.0
 26
0.0
 36
0.0
 17
0.0
 27
1.0
 37
0.0
 76
0
330
23
  0
DICTIONARY
  5
99
100
AcDbDictionary
281
1
  3
DIMASSOC
350
9C
  3
HIDETEXT
350
9B
  0
DICTIONARYVAR
  5
9B
100
DictionaryVariables
280
0
  1
2
  0
DICTIONARYVAR
  5
9C
100
DictionaryVariables
280
0
  1
1
  0
DICTIONARY
  5
9A
100
AcDbDictionary
281
1
  3
Grid/DisplayGrid00
350
9D
  3
Grid/DisplayGrid01
350
9E
  3
Grid/DisplayGrid02
350
9F
  3
Grid/DisplayGrid03
350
A0
  3
Grid/GridSpacingX00
350
A1
  3
Grid/GridSpacingX01
350
A2
  3
Grid/GridSpacingX02
350
A3
  3
Grid/GridSpacingX03
350
A4
  3
Grid/GridSpacingY00
350
A5
  3
Grid/GridSpacingY01
350
A6
  3
Grid/GridSpacingY02
350
A7
  3
Grid/GridSpacingY03
350
A8
  3
Grid/IsometricGrid00
350
A9
  3
Grid/IsometricGrid01
350
AA
  3
Grid/IsometricGrid02
350
AB
  3
Grid/IsometricGrid03
350
AC
  3
Grid/IsometricProjection00
350
AD
  3
Grid/IsometricProjection01
350
AE
  3
Grid/IsometricProjection02
350
AF
  3
Grid/IsometricProjection03
350
B0
  3
Grid/MetaGridSpacingX00
350
B1
  3
Grid/MetaGridSpacingX01
350
B2
  3
Grid/MetaGridSpacingX02
350
B3
  3
Grid/MetaGridSpacingX03
350
B4
  3
Grid/MetaGridSpacingY00
350
B5
  3
Grid/MetaGridSpacingY01
350
B6
  3
Grid/MetaGridSpacingY02
350
B7
  3
Grid/MetaGridSpacingY03
350
B8
  3
MultiPageSettings/Columns
350
B9
  3
MultiPageSettings/GlueMarginsBottom
350
BA
  3
MultiPageSettings/GlueMarginsLeft
350
BB
  3
MultiPageSettings/GlueMarginsRight
350
BC
  3
MultiPageSettings/GlueMarginsTop
350
BD
  3
MultiPageSettings/PrintCropMarks
350
BE
  3
MultiPageSettings/Rows
350
BF
  3
PageSettings/OffsetX
350
C0
  3
PageSettings/OffsetY
350
C1
  3
PageSettings/PageOrientation
350
C2
  3
PageSettings/PaperHeight
350
C3
  3
PageSettings/PaperWidth
350
C4
  3
PageSettings/Scale
350
C5
  3
PageSettings/ShowPaperBorders
350
C6
  3
UnitSettings/PaperUnit
350
C7
  0
XRECORD
  5
9D
330
9A
100
AcDbXrecord
280
1
290
1
  0
XRECORD
  5
9E
330
9A
100
AcDbXrecord
280
1
290
1
  0
XRECORD
  5
9F
330
9A
100
AcDbXrecord
280
1
290
1
  0
XRECORD
  5
A0
330
9A
100
AcDbXrecord
280
1
290
1
  0
XRECORD
  5
A1
330
9A
100
AcDbXrecord
280
1
1000
auto
  0
XRECORD
  5
A2
330
9A
100
AcDbXrecord
280
1
1000
auto
  0
XRECORD
  5
A3
330
9A
100
AcDbXrecord
280
1
1000
auto
  0
XRECORD
  5
A4
330
9A
100
AcDbXrecord
280
1
1000
auto
  0
XRECORD
  5
A5
330
9A
100
AcDbXrecord
280
1
1000
auto
  0
XRECORD
  5
A6
330
9A
100
AcDbXrecord
280
1
1000
auto
  0
XRECORD
  5
A7
330
9A
100
AcDbXrecord
280
1
1000
auto
  0
XRECORD
  5
A8
330
9A
100
AcDbXrecord
280
1
1000
auto
  0
XRECORD
  5
A9
330
9A
100
AcDbXrecord
280
1
290
0
  0
XRECORD
  5
AA
330
9A
100
AcDbXrecord
280
1
290
0
  0
XRECORD
  5
AB
330
9A
100
AcDbXrecord
280
1
290
0
  0
XRECORD
  5
AC
330
9A
100
AcDbXrecord
280
1
290
0
  0
XRECORD
  5
AD
330
9A
100
AcDbXrecord
280
1
 90
0
  0
XRECORD
  5
AE
330
9A
100
AcDbXrecord
280
1
 90
0
  0
XRECORD
  5
AF
330
9A
100
AcDbXrecord
280
1
 90
0
  0
XRECORD
  5
B0
330
9A
100
AcDbXrecord
280
1
 90
0
  0
XRECORD
  5
B1
330
9A
100
AcDbXrecord
280
1
1000
auto
  0
XRECORD
  5
B2
330
9A
100
AcDbXrecord
280
1
1000
auto
  0
XRECORD
  5
B3
330
9A
100
AcDbXrecord
280
1
1000
auto
  0
XRECORD
  5
B4
330
9A
100
AcDbXrecord
280
1
1000
auto
  0
XRECORD
  5
B5
330
9A
100
AcDbXrecord
280
1
1000
auto
  0
XRECORD
  5
B6
330
9A
100
AcDbXrecord
280
1
1000
auto
  0
XRECORD
  5
B7
330
9A
100
AcDbXrecord
280
1
1000
auto
  0
XRECORD
  5
B8
330
9A
100
AcDbXrecord
280
1
1000
auto
  0
XRECORD
  5
B9
330
9A
100
AcDbXrecord
280
1
 90
1
  0
XRECORD
  5
BA
330
9A
100
AcDbXrecord
280
1
 40
10.0
  0
XRECORD
  5
BB
330
9A
100
AcDbXrecord
280
1
 40
10.0
  0
XRECORD
  5
BC
330
9A
100
AcDbXrecord
280
1
 40
10.0
  0
XRECORD
  5
BD
330
9A
100
AcDbXrecord
280
1
 40
10.0
  0
XRECORD
  5
BE
330
9A
100
AcDbXrecord
280
1
290
0
  0
XRECORD
  5
BF
330
9A
100
AcDbXrecord
280
1
 90
1
  0
XRECORD
  5
C0
330
9A
100
AcDbXrecord
280
1
 40
0.0
  0
XRECORD
  5
C1
330
9A
100
AcDbXrecord
280
1
 40
0.0
  0
XRECORD
  5
C2
330
9A
100
AcDbXrecord
280
1
1000
Portrait
  0
XRECORD
  5
C3
330
9A
100
AcDbXrecord
280
1
 40
297.0
  0
XRECORD
  5
C4
330
9A
100
AcDbXrecord
280
1
 40
210.0
  0
XRECORD
  5
C5
330
9A
100
AcDbXrecord
280
1
1000
1:1
  0
XRECORD
  5
C6
330
9A
100
AcDbXrecord
280
1
290
1
  0
XRECORD
  5
C7
330
9A
100
AcDbXrecord
280
1
 90
4
  0
ENDSEC
  0
EOF
